<svg version="1.1" id="Layer_1" xmlns="http://www.w3.org/2000/svg" xmlns:xlink="http://www.w3.org/1999/xlink" x="0px" y="0px"
	 width="100%" viewBox="0 0 997 562" enable-background="new 0 0 997 562" xml:space="preserve">
<path fill="#FFFFFF" opacity="1.000000" stroke="none" 
	d="
M172.000000,563.000000 
	C115.052895,563.000000 58.105789,563.000000 1.000000,563.000000 
	C1.000000,463.645294 1.000000,364.290497 1.393522,264.300049 
	C10.668045,265.805603 19.590931,267.795441 28.390583,270.230621 
	C29.934502,270.657898 31.640471,272.757141 32.119713,274.416840 
	C35.936417,287.634521 39.544575,300.914490 42.991066,314.233765 
	C43.333424,315.556854 42.624699,317.717041 41.630356,318.727844 
	C35.791393,324.663330 29.832071,330.492859 23.677879,336.099670 
	C21.192259,338.364227 20.412882,340.304626 22.216463,343.340881 
	C28.070963,353.196777 33.834400,363.108093 39.508003,373.069244 
	C41.117413,375.894897 42.918343,376.423035 46.038406,375.426544 
	C53.942924,372.902008 61.941612,370.637665 69.995499,368.644592 
	C71.616356,368.243469 74.205833,368.926147 75.401825,370.085724 
	C85.068642,379.458344 94.589470,388.987122 103.925163,398.689209 
	C105.203461,400.017670 106.087448,402.775909 105.665741,404.510315 
	C103.706451,412.568451 101.376976,420.548462 98.846237,428.449524 
	C97.926636,431.320526 98.200859,433.033936 100.906410,434.569885 
	C111.160965,440.391418 121.352737,446.324402 131.529526,452.281372 
	C133.912216,453.676086 135.518387,453.392242 137.486282,451.257416 
	C143.240952,445.014648 149.362335,439.111176 155.171021,432.916260 
	C157.065323,430.896027 158.695953,430.620483 161.285324,431.566772 
	C167.946640,434.001099 174.747864,436.052551 182.140717,438.468628 
	C182.140717,436.159943 182.140717,434.687195 182.140701,433.214417 
	C182.140656,417.718109 182.038132,402.220612 182.219009,386.726410 
	C182.259750,383.238220 181.289612,381.632874 177.873718,380.262848 
	C108.141396,352.295563 70.017372,278.324554 87.909760,206.039795 
	C107.734703,125.947578 187.890854,76.938263 267.860992,96.696274 
	C315.476440,108.460487 349.102661,137.714066 369.560394,182.139297 
	C370.968964,185.198105 372.393707,186.294220 375.747437,186.254883 
	C391.574799,186.069092 407.405609,186.171967 423.235168,186.171921 
	C424.696198,186.171921 426.157196,186.171936 428.132904,186.171936 
	C426.523865,181.206726 425.555237,176.586075 423.551788,172.468964 
	C421.298737,167.838760 422.703522,165.176956 426.157104,161.896973 
	C432.514221,155.859467 438.265747,149.184341 444.939606,142.059738 
	C438.974518,132.005615 432.461334,121.192741 426.141602,110.267921 
	C424.406036,107.267654 422.548523,106.744781 419.272247,107.804749 
	C411.538055,110.307007 403.637939,112.291679 395.845001,114.619743 
	C393.163483,115.420830 391.526642,114.877586 389.456573,112.711754 
	C380.382446,103.217735 371.072052,93.940331 361.592499,84.850128 
	C359.468933,82.813766 358.843231,81.353249 359.736755,78.520821 
	C362.233154,70.607399 364.264130,62.548336 366.658356,54.600842 
	C367.501099,51.803352 367.100677,49.949875 364.421844,48.435440 
	C354.296631,42.711281 344.212433,36.912029 334.191895,31.006813 
	C331.583832,29.469852 329.891449,29.768732 327.808441,32.028877 
	C322.053894,38.272778 316.120667,44.361561 310.033783,50.281021 
	C308.921936,51.362270 306.541016,52.126339 305.103699,51.732178 
	C290.893555,47.835278 276.758820,43.663197 261.899902,39.365788 
	C259.811981,31.212736 257.215912,21.940302 255.162384,12.549229 
	C254.515533,9.591113 253.243423,8.572991 250.600021,8.560021 
	C238.952896,8.502872 227.305038,8.524666 215.658798,8.395245 
	C211.872849,8.353171 210.671539,10.432569 209.932755,13.734292 
	C208.156708,21.671721 206.174240,29.568377 204.012039,37.408962 
	C203.626450,38.807152 202.181854,40.587925 200.878372,40.954258 
	C187.474808,44.721226 174.018433,48.307983 160.517639,51.710358 
	C159.025009,52.086514 156.630920,51.548622 155.562637,50.505245 
	C149.488312,44.572510 143.577133,38.460163 137.854416,32.186359 
	C135.642685,29.761642 133.756104,29.481470 131.023468,31.101009 
	C121.018959,37.030373 110.961563,42.871788 100.872292,48.655975 
	C98.489571,50.021996 97.784851,51.418232 98.704025,54.268955 
	C101.250267,62.165863 103.229317,70.244774 105.730995,78.157387 
	C106.683998,81.171638 105.905228,82.845665 103.687675,84.985947 
	C94.236008,94.108284 84.968452,103.427681 75.849426,112.883217 
	C73.950226,114.852509 72.423264,115.455673 69.848839,114.684151 
	C61.738949,112.253731 53.515110,110.193092 45.450844,107.626511 
	C42.632401,106.729500 41.146450,107.322906 39.775723,109.708885 
	C33.898293,119.939514 27.990053,130.153107 21.994987,140.315063 
	C20.404058,143.011765 21.187378,144.719482 23.332548,146.703918 
	C29.567595,152.471741 35.696434,158.364716 41.621368,164.447800 
	C42.676270,165.530869 43.249187,167.938187 42.866436,169.432175 
	C39.658291,181.954437 36.036430,194.371078 32.860523,206.900986 
	C31.929613,210.573715 30.978853,213.185028 26.540142,213.562851 
	C23.114017,213.854462 19.798798,215.283096 16.392147,216.008347 
	C11.280795,217.096527 6.132555,218.011414 1.000000,219.000000 
	C1.000000,146.349899 1.000000,73.699783 1.000000,1.024838 
	C333.241058,1.024838 665.482117,1.024838 997.861572,1.024838 
	C997.861572,188.333267 997.861572,375.666626 997.861572,563.000000 
	C952.915222,563.000000 907.925476,563.000000 862.619385,562.667725 
	C854.338867,554.281250 846.468384,546.130920 838.356018,538.229004 
	C835.779968,535.719727 834.672485,533.221924 834.677063,529.551147 
	C834.785583,442.221893 834.761353,354.892426 834.761353,267.563019 
	C834.761353,265.804077 834.761353,264.045135 834.761353,261.971588 
	C854.712708,261.971588 874.018433,261.913574 893.322144,262.083160 
	C894.844849,262.096527 896.627930,263.414673 897.824524,264.597382 
	C905.883057,272.562164 913.807129,280.662842 921.802063,288.692413 
	C922.643982,289.538025 923.663269,290.207062 924.870605,291.174713 
	C924.870605,260.979065 924.870605,231.398849 924.870605,201.803589 
	C844.194519,201.803589 763.822266,201.803589 683.608887,201.803589 
	C683.608887,231.888000 683.608887,261.533813 683.608887,291.722443 
	C692.928406,282.446442 701.670044,273.543518 710.697693,264.940674 
	C712.384583,263.333130 715.206543,262.127045 717.523071,262.095703 
	C734.852478,261.860931 752.186462,261.961761 769.519043,261.979370 
	C770.956177,261.980835 772.393188,262.143890 773.940613,262.238586 
	C773.995483,263.413116 774.066711,264.226929 774.066772,265.040710 
	C774.072266,353.703400 774.089844,442.366089 773.963623,531.028564 
	C773.960754,533.040100 772.795227,535.497620 771.373962,536.984009 
	C764.123962,544.566284 756.583374,551.869995 749.223633,559.348999 
	C748.250549,560.337830 747.730103,561.772095 747.000000,563.000000 
	C714.978577,563.000000 682.957092,563.000000 650.718994,562.702026 
	C642.189819,553.996582 633.795715,545.666809 625.642212,537.107849 
	C624.223389,535.618469 623.061768,533.163940 623.057068,531.152222 
	C622.920593,472.825745 622.921387,414.498810 623.053162,356.172333 
	C623.057739,354.145477 624.140503,351.651276 625.555725,350.175720 
	C633.162048,342.245544 641.040039,334.576172 648.804443,326.797089 
	C649.894043,325.705414 650.874817,324.505188 652.281494,322.936462 
	C621.893127,322.936462 592.298340,322.936462 562.151855,322.936462 
	C562.151855,325.129944 562.151855,327.082642 562.151855,329.035339 
	C562.151855,401.027283 562.155457,473.019226 562.145325,545.011169 
	C562.144470,551.007446 562.050659,557.003723 562.000000,563.000000 
	C551.311890,563.000000 540.623779,563.000000 529.669800,562.682251 
	C521.091553,553.963867 512.683228,545.654297 504.552765,537.081116 
	C503.040802,535.486816 501.853210,532.833679 501.850342,530.667480 
	C501.718811,432.357666 501.716339,334.047668 501.858734,235.737915 
	C501.862061,233.432266 503.145630,230.612579 504.759369,228.913208 
	C512.326172,220.944672 520.226196,213.292938 527.983948,205.504913 
	C529.054993,204.429749 529.996216,203.225372 531.412903,201.605988 
	C529.871338,201.476303 529.238281,201.376602 528.605286,201.376465 
	C494.280121,201.368378 459.954498,201.450287 425.630463,201.251984 
	C421.866150,201.230225 421.230469,203.404968 420.319855,205.833939 
	C405.161682,246.266876 390.035858,286.711914 374.887939,327.148651 
	C366.854309,348.594147 358.792297,370.028961 350.571869,391.924713 
	C349.628479,389.579437 348.848694,387.750519 348.151093,385.890778 
	C325.702942,326.045410 303.218079,266.213745 280.921936,206.311798 
	C279.433502,202.312973 277.453613,201.254028 273.388733,201.274734 
	C240.730682,201.441177 208.071426,201.367874 175.412521,201.367874 
	C173.651199,201.367874 171.889877,201.367874 168.981979,201.367874 
	C170.903275,203.434555 171.952255,204.632538 173.073837,205.758179 
	C180.832092,213.544327 188.710236,221.215714 196.284988,229.176010 
	C197.789917,230.757538 198.925125,233.426712 198.927963,235.596039 
	C199.056351,333.905823 199.059479,432.215820 198.914368,530.525574 
	C198.910995,532.819092 197.574615,535.608215 195.960480,537.315918 
	C188.870224,544.817322 181.419983,551.977356 174.182144,559.341614 
	C173.215134,560.325562 172.715881,561.769226 172.000000,563.000000 
M573.610474,272.978302 
	C590.327393,279.995850 606.299622,278.574402 620.494690,267.266327 
	C634.416443,256.176056 640.304932,241.375259 637.028198,223.546387 
	C632.610901,199.511795 611.521912,184.914032 589.772888,186.415604 
	C565.027344,188.124084 546.374695,208.454498 547.126343,232.450546 
	C547.699402,250.744095 556.701965,264.172546 573.610474,272.978302 
z"/>
<path fill="#504D4E" opacity="1.000000" stroke="none" 
	d="
M172.468658,563.000000 
	C172.715881,561.769226 173.215134,560.325562 174.182144,559.341614 
	C181.419983,551.977356 188.870224,544.817322 195.960480,537.315918 
	C197.574615,535.608215 198.910995,532.819092 198.914368,530.525574 
	C199.059479,432.215820 199.056351,333.905823 198.927963,235.596039 
	C198.925125,233.426712 197.789917,230.757538 196.284988,229.176010 
	C188.710236,221.215714 180.832092,213.544327 173.073837,205.758179 
	C171.952255,204.632538 170.903275,203.434555 168.981979,201.367874 
	C171.889877,201.367874 173.651199,201.367874 175.412521,201.367874 
	C208.071426,201.367874 240.730682,201.441177 273.388733,201.274734 
	C277.453613,201.254028 279.433502,202.312973 280.921936,206.311798 
	C303.218079,266.213745 325.702942,326.045410 348.151093,385.890778 
	C348.848694,387.750519 349.628479,389.579437 350.571869,391.924713 
	C358.792297,370.028961 366.854309,348.594147 374.887939,327.148651 
	C390.035858,286.711914 405.161682,246.266876 420.319855,205.833939 
	C421.230469,203.404968 421.866150,201.230225 425.630463,201.251984 
	C459.954498,201.450287 494.280121,201.368378 528.605286,201.376465 
	C529.238281,201.376602 529.871338,201.476303 531.412903,201.605988 
	C529.996216,203.225372 529.054993,204.429749 527.983948,205.504913 
	C520.226196,213.292938 512.326172,220.944672 504.759369,228.913208 
	C503.145630,230.612579 501.862061,233.432266 501.858734,235.737915 
	C501.716339,334.047668 501.718811,432.357666 501.850342,530.667480 
	C501.853210,532.833679 503.040802,535.486816 504.552765,537.081116 
	C512.683228,545.654297 521.091553,553.963867 529.202026,562.682251 
	C499.979095,563.000000 470.958221,563.000000 441.545990,562.536743 
	C441.154663,483.229828 441.154663,404.386108 441.154663,325.542419 
	C439.782745,326.568024 439.305176,327.742096 438.860535,328.928497 
	C423.072449,371.054626 407.304230,413.188171 391.496857,455.307037 
	C378.021057,491.213379 364.500702,527.103027 351.000000,563.000000 
	C351.000000,563.000000 350.500000,563.000000 350.108917,562.670227 
	C324.754395,495.960571 299.794037,429.579529 274.824738,363.201843 
	C270.119904,350.694641 265.379547,338.200806 260.655579,325.700775 
	C259.822479,327.261658 259.691345,328.673553 259.691162,330.085449 
	C259.681213,406.236847 259.680511,482.388214 259.695465,558.539612 
	C259.695740,560.026428 259.894073,561.513184 260.000000,563.000000 
	C230.979111,563.000000 201.958206,563.000000 172.468658,563.000000 
z"/>
<path fill="#F14725" opacity="1.000000" stroke="none" 
	d="
M1.000000,219.468658 
	C6.132555,218.011414 11.280795,217.096527 16.392147,216.008347 
	C19.798798,215.283096 23.114017,213.854462 26.540142,213.562851 
	C30.978853,213.185028 31.929613,210.573715 32.860523,206.900986 
	C36.036430,194.371078 39.658291,181.954437 42.866436,169.432175 
	C43.249187,167.938187 42.676270,165.530869 41.621368,164.447800 
	C35.696434,158.364716 29.567595,152.471741 23.332548,146.703918 
	C21.187378,144.719482 20.404058,143.011765 21.994987,140.315063 
	C27.990053,130.153107 33.898293,119.939514 39.775723,109.708885 
	C41.146450,107.322906 42.632401,106.729500 45.450844,107.626511 
	C53.515110,110.193092 61.738949,112.253731 69.848839,114.684151 
	C72.423264,115.455673 73.950226,114.852509 75.849426,112.883217 
	C84.968452,103.427681 94.236008,94.108284 103.687675,84.985947 
	C105.905228,82.845665 106.683998,81.171638 105.730995,78.157387 
	C103.229317,70.244774 101.250267,62.165863 98.704025,54.268955 
	C97.784851,51.418232 98.489571,50.021996 100.872292,48.655975 
	C110.961563,42.871788 121.018959,37.030373 131.023468,31.101009 
	C133.756104,29.481470 135.642685,29.761642 137.854416,32.186359 
	C143.577133,38.460163 149.488312,44.572510 155.562637,50.505245 
	C156.630920,51.548622 159.025009,52.086514 160.517639,51.710358 
	C174.018433,48.307983 187.474808,44.721226 200.878372,40.954258 
	C202.181854,40.587925 203.626450,38.807152 204.012039,37.408962 
	C206.174240,29.568377 208.156708,21.671721 209.932755,13.734292 
	C210.671539,10.432569 211.872849,8.353171 215.658798,8.395245 
	C227.305038,8.524666 238.952896,8.502872 250.600021,8.560021 
	C253.243423,8.572991 254.515533,9.591113 255.162384,12.549229 
	C257.215912,21.940302 259.811981,31.212736 261.899902,39.365788 
	C276.758820,43.663197 290.893555,47.835278 305.103699,51.732178 
	C306.541016,52.126339 308.921936,51.362270 310.033783,50.281021 
	C316.120667,44.361561 322.053894,38.272778 327.808441,32.028877 
	C329.891449,29.768732 331.583832,29.469852 334.191895,31.006813 
	C344.212433,36.912029 354.296631,42.711281 364.421844,48.435440 
	C367.100677,49.949875 367.501099,51.803352 366.658356,54.600842 
	C364.264130,62.548336 362.233154,70.607399 359.736755,78.520821 
	C358.843231,81.353249 359.468933,82.813766 361.592499,84.850128 
	C371.072052,93.940331 380.382446,103.217735 389.456573,112.711754 
	C391.526642,114.877586 393.163483,115.420830 395.845001,114.619743 
	C403.637939,112.291679 411.538055,110.307007 419.272247,107.804749 
	C422.548523,106.744781 424.406036,107.267654 426.141602,110.267921 
	C432.461334,121.192741 438.974518,132.005615 444.939606,142.059738 
	C438.265747,149.184341 432.514221,155.859467 426.157104,161.896973 
	C422.703522,165.176956 421.298737,167.838760 423.551788,172.468964 
	C425.555237,176.586075 426.523865,181.206726 428.132904,186.171936 
	C426.157196,186.171936 424.696198,186.171921 423.235168,186.171921 
	C407.405609,186.171967 391.574799,186.069092 375.747437,186.254883 
	C372.393707,186.294220 370.968964,185.198105 369.560394,182.139297 
	C349.102661,137.714066 315.476440,108.460487 267.860992,96.696274 
	C187.890854,76.938263 107.734703,125.947578 87.909760,206.039795 
	C70.017372,278.324554 108.141396,352.295563 177.873718,380.262848 
	C181.289612,381.632874 182.259750,383.238220 182.219009,386.726410 
	C182.038132,402.220612 182.140656,417.718109 182.140701,433.214417 
	C182.140717,434.687195 182.140717,436.159943 182.140717,438.468628 
	C174.747864,436.052551 167.946640,434.001099 161.285324,431.566772 
	C158.695953,430.620483 157.065323,430.896027 155.171021,432.916260 
	C149.362335,439.111176 143.240952,445.014648 137.486282,451.257416 
	C135.518387,453.392242 133.912216,453.676086 131.529526,452.281372 
	C121.352737,446.324402 111.160965,440.391418 100.906410,434.569885 
	C98.200859,433.033936 97.926636,431.320526 98.846237,428.449524 
	C101.376976,420.548462 103.706451,412.568451 105.665741,404.510315 
	C106.087448,402.775909 105.203461,400.017670 103.925163,398.689209 
	C94.589470,388.987122 85.068642,379.458344 75.401825,370.085724 
	C74.205833,368.926147 71.616356,368.243469 69.995499,368.644592 
	C61.941612,370.637665 53.942924,372.902008 46.038406,375.426544 
	C42.918343,376.423035 41.117413,375.894897 39.508003,373.069244 
	C33.834400,363.108093 28.070963,353.196777 22.216463,343.340881 
	C20.412882,340.304626 21.192259,338.364227 23.677879,336.099670 
	C29.832071,330.492859 35.791393,324.663330 41.630356,318.727844 
	C42.624699,317.717041 43.333424,315.556854 42.991066,314.233765 
	C39.544575,300.914490 35.936417,287.634521 32.119713,274.416840 
	C31.640471,272.757141 29.934502,270.657898 28.390583,270.230621 
	C19.590931,267.795441 10.668045,265.805603 1.393522,263.832214 
	C1.000000,249.312439 1.000000,234.624878 1.000000,219.468658 
z"/>
<path fill="#504D4E" opacity="1.000000" stroke="none" 
	d="
M747.468628,563.000000 
	C747.730103,561.772095 748.250549,560.337830 749.223633,559.348999 
	C756.583374,551.869995 764.123962,544.566284 771.373962,536.984009 
	C772.795227,535.497620 773.960754,533.040100 773.963623,531.028564 
	C774.089844,442.366089 774.072266,353.703400 774.066772,265.040710 
	C774.066711,264.226929 773.995483,263.413116 773.940613,262.238586 
	C772.393188,262.143890 770.956177,261.980835 769.519043,261.979370 
	C752.186462,261.961761 734.852478,261.860931 717.523071,262.095703 
	C715.206543,262.127045 712.384583,263.333130 710.697693,264.940674 
	C701.670044,273.543518 692.928406,282.446442 683.608887,291.722443 
	C683.608887,261.533813 683.608887,231.888000 683.608887,201.803589 
	C763.822266,201.803589 844.194519,201.803589 924.870605,201.803589 
	C924.870605,231.398849 924.870605,260.979065 924.870605,291.174713 
	C923.663269,290.207062 922.643982,289.538025 921.802063,288.692413 
	C913.807129,280.662842 905.883057,272.562164 897.824524,264.597382 
	C896.627930,263.414673 894.844849,262.096527 893.322144,262.083160 
	C874.018433,261.913574 854.712708,261.971588 834.761353,261.971588 
	C834.761353,264.045135 834.761353,265.804077 834.761353,267.563019 
	C834.761353,354.892426 834.785583,442.221893 834.677063,529.551147 
	C834.672485,533.221924 835.779968,535.719727 838.356018,538.229004 
	C846.468384,546.130920 854.338867,554.281250 862.151489,562.667725 
	C823.979126,563.000000 785.958191,563.000000 747.468628,563.000000 
z"/>
<path fill="#504D4E" opacity="1.000000" stroke="none" 
	d="
M562.468689,563.000000 
	C562.050659,557.003723 562.144470,551.007446 562.145325,545.011169 
	C562.155457,473.019226 562.151855,401.027283 562.151855,329.035339 
	C562.151855,327.082642 562.151855,325.129944 562.151855,322.936462 
	C592.298340,322.936462 621.893127,322.936462 652.281494,322.936462 
	C650.874817,324.505188 649.894043,325.705414 648.804443,326.797089 
	C641.040039,334.576172 633.162048,342.245544 625.555725,350.175720 
	C624.140503,351.651276 623.057739,354.145477 623.053162,356.172333 
	C622.921387,414.498810 622.920593,472.825745 623.057068,531.152222 
	C623.061768,533.163940 624.223389,535.618469 625.642212,537.107849 
	C633.795715,545.666809 642.189819,553.996582 650.251221,562.702026 
	C620.979126,563.000000 591.958191,563.000000 562.468689,563.000000 
z"/>
<path fill="#FEFEFE" opacity="1.000000" stroke="none" 
	d="
M351.468689,563.000000 
	C364.500702,527.103027 378.021057,491.213379 391.496857,455.307037 
	C407.304230,413.188171 423.072449,371.054626 438.860535,328.928497 
	C439.305176,327.742096 439.782745,326.568024 441.154663,325.542419 
	C441.154663,404.386108 441.154663,483.229828 441.077332,562.536743 
	C411.312439,563.000000 381.624878,563.000000 351.468689,563.000000 
z"/>
<path fill="#FEFEFE" opacity="1.000000" stroke="none" 
	d="
M260.468658,563.000000 
	C259.894073,561.513184 259.695740,560.026428 259.695465,558.539612 
	C259.680511,482.388214 259.681213,406.236847 259.691162,330.085449 
	C259.691345,328.673553 259.822479,327.261658 260.655579,325.700775 
	C265.379547,338.200806 270.119904,350.694641 274.824738,363.201843 
	C299.794037,429.579529 324.754395,495.960571 349.858917,562.670227 
	C320.312439,563.000000 290.624878,563.000000 260.468658,563.000000 
z"/>
<path fill="#504D4E" opacity="1.000000" stroke="none" 
	d="
M573.247620,272.865234 
	C556.701965,264.172546 547.699402,250.744095 547.126343,232.450546 
	C546.374695,208.454498 565.027344,188.124084 589.772888,186.415604 
	C611.521912,184.914032 632.610901,199.511795 637.028198,223.546387 
	C640.304932,241.375259 634.416443,256.176056 620.494690,267.266327 
	C606.299622,278.574402 590.327393,279.995850 573.247620,272.865234 
z"/>
</svg>